<?xml version="1.0" encoding="UTF-8" standalone="no"?><!-- Generator: Gravit.io --><svg xmlns="http://www.w3.org/2000/svg" xmlns:xlink="http://www.w3.org/1999/xlink" style="isolation:isolate" viewBox="0 0 256 256" width="256pt" height="256pt"><defs><clipPath id="_clipPath_rkGScsKfk08M5M1wVKAnq6UJdHzoDsgS"><rect width="256" height="256"/></clipPath></defs><g clip-path="url(#_clipPath_rkGScsKfk08M5M1wVKAnq6UJdHzoDsgS)"><circle cx="128" cy="128" r="128" fill="rgb(255,255,255)"/><polygon points="214.603,78,214.603,178,128,228,41.397,178,41.397,78,128,28" fill="rgb(176,190,197)"/><path d=" M 128 133 L 128 223 C 128 225.76 129.94 226.88 132.33 225.5 L 210.272 180.5 C 212.662 179.12 214.603 175.76 214.603 173 L 214.603 83 C 214.603 80.24 212.662 79.12 210.272 80.5 L 132.33 125.5 C 129.94 126.88 128 130.24 128 133 Z " fill="none" stroke-width="5" stroke="rgb(144,164,174)" stroke-linejoin="miter" stroke-linecap="square" stroke-miterlimit="3"/><path d=" M 41.397 83 L 41.397 173 C 41.397 175.76 43.338 179.12 45.728 180.5 L 123.67 225.5 C 126.06 226.88 128 225.76 128 223 L 128 133 C 128 130.24 126.06 126.88 123.67 125.5 L 45.728 80.5 C 43.338 79.12 41.397 80.24 41.397 83 Z " fill="none" stroke-width="5" stroke="rgb(144,164,174)" stroke-linejoin="miter" stroke-linecap="square" stroke-miterlimit="3"/><path d=" M 132.33 30.5 L 210.272 75.5 C 212.662 76.88 212.662 79.12 210.272 80.5 L 132.33 125.5 C 129.94 126.88 126.06 126.88 123.67 125.5 L 45.728 80.5 C 43.338 79.12 43.338 76.88 45.728 75.5 L 123.67 30.5 C 126.06 29.12 129.94 29.12 132.33 30.5 Z " fill="none" stroke-width="5" stroke="rgb(144,164,174)" stroke-linejoin="miter" stroke-linecap="square" stroke-miterlimit="3"/></g></svg>